<?xml version="1.0" encoding="UTF-8" standalone="no"?>
<!-- Created with Inkscape (http://www.inkscape.org/) -->

<svg
   xmlns:dc="http://purl.org/dc/elements/1.1/"
   xmlns:cc="http://creativecommons.org/ns#"
   xmlns:rdf="http://www.w3.org/1999/02/22-rdf-syntax-ns#"
   xmlns:svg="http://www.w3.org/2000/svg"
   xmlns="http://www.w3.org/2000/svg"
   xmlns:sodipodi="http://sodipodi.sourceforge.net/DTD/sodipodi-0.dtd"
   xmlns:inkscape="http://www.inkscape.org/namespaces/inkscape"
   width="250mm"
   height="72.243599mm"
   viewBox="0 0 250 72.243599"
   version="1.1"
   id="svg8"
   inkscape:version="0.92.2 5c3e80d, 2017-08-06"
   sodipodi:docname="hometrap.svg"
   inkscape:export-filename="/Users/jaleman/Desktop/hometrap.svg.png"
   inkscape:export-xdpi="82.00679"
   inkscape:export-ydpi="82.00679">
  <defs
     id="defs2" />
  <sodipodi:namedview
     id="base"
     pagecolor="#ffffff"
     bordercolor="#666666"
     borderopacity="1.0"
     inkscape:pageopacity="0.0"
     inkscape:pageshadow="2"
     inkscape:zoom="1.3144784"
     inkscape:cx="114.55308"
     inkscape:cy="184.03795"
     inkscape:document-units="mm"
     inkscape:current-layer="g1215"
     showgrid="false"
     inkscape:window-width="2560"
     inkscape:window-height="1316"
     inkscape:window-x="69"
     inkscape:window-y="4"
     inkscape:window-maximized="0"
     inkscape:measure-start="0,0"
     inkscape:measure-end="0,0"
     fit-margin-top="0"
     fit-margin-left="0"
     fit-margin-right="0"
     fit-margin-bottom="0" />
  <metadata
     id="metadata5">
    <rdf:RDF>
      <cc:Work
         rdf:about="">
        <dc:format>image/svg+xml</dc:format>
        <dc:type
           rdf:resource="http://purl.org/dc/dcmitype/StillImage" />
        <dc:title></dc:title>
      </cc:Work>
    </rdf:RDF>
  </metadata>
  <g
     inkscape:label="Layer 1"
     inkscape:groupmode="layer"
     id="layer1"
     transform="translate(-21.115484,-82.060226)">
    <g
       id="g1215"
       transform="translate(11.29616,15.879199)">
      <g
         id="g921"
         transform="matrix(4.2468368,0,0,4.2468368,-24.283322,-451.2537)">
        <g
           transform="translate(-27.167317,13.261771)"
           aria-label="H  me"
           style="font-style:normal;font-variant:normal;font-weight:normal;font-stretch:normal;font-size:10.58333302px;line-height:1.25;font-family:'Halida Sans';-inkscape-font-specification:'Halida Sans';letter-spacing:0px;word-spacing:0px;fill:#1a1a1a;fill-opacity:1;stroke:none;stroke-width:0.26458332"
           id="text1079">
          <path
             inkscape:connector-curvature="0"
             d="m 43.453057,109.33798 h 1.439334 v 10.287 h -1.439334 v -4.75191 h -5.037666 v 4.75191 h -1.42875 v -10.287 h 1.42875 v 4.29684 h 5.037666 z"
             style="fill:#1a1a1a;stroke-width:0.26458332"
             id="path850" />
          <path
             inkscape:connector-curvature="0"
             d="m 53.048172,112.89398 q 0.158749,-0.0423 0.338666,-0.0952 0.179917,-0.0635 0.391583,-0.0953 0.6985,-0.127 1.61925,-0.127 0.656167,0 1.11125,0.17992 0.455084,0.16933 0.762,0.52917 l 0.296334,-0.1905 q 0.09525,-0.0529 0.211666,-0.11642 0.127,-0.0635 0.275167,-0.11642 0.148167,-0.0529 0.306917,-0.0952 0.169333,-0.0529 0.34925,-0.10583 0.370416,-0.0847 0.762,-0.0847 0.783166,0 1.312333,0.23284 0.497417,0.24341 0.783167,0.65616 0.275166,0.41275 0.391583,1.016 0.09525,0.59267 0.09525,1.27 v 3.88409 h -1.23825 v -3.6195 q 0,-0.30692 -0.02117,-0.56092 -0.01058,-0.26458 -0.03175,-0.48683 -0.0635,-0.4445 -0.232833,-0.73025 -0.15875,-0.29634 -0.4445,-0.43392 -0.306917,-0.13758 -0.740833,-0.13758 -0.645584,0 -1.026584,0.16933 -0.211666,0.0847 -0.34925,0.15875 -0.127,0.0741 -0.211666,0.13758 0.105833,0.34925 0.15875,0.762 0.0635,0.41275 0.0635,0.85725 v 3.88409 h -1.23825 v -3.6195 q 0,-0.60325 -0.0635,-1.04775 -0.08467,-0.4445 -0.232834,-0.73025 -0.179916,-0.29634 -0.455083,-0.43392 -0.306917,-0.13758 -0.73025,-0.13758 -0.08467,0 -0.1905,0.0106 -0.09525,0 -0.201083,0 -0.116417,0.0106 -0.211667,0.0212 -0.09525,0 -0.201083,0.0212 -0.09525,0.0106 -0.179917,0.0212 -0.08467,0 -0.169333,0.0212 -0.08467,0.0212 -0.137584,0.0318 -0.05292,0 -0.07408,0.0106 v 0.46567 q 0.01058,0.0741 0.01058,0.14816 0,0.0635 0,0.14817 v 5.05883 h -0.01058 v 0.0106 h -1.23825 v -0.0106 h -0.01058 v -4.85775 q 0,-0.15875 -0.02117,-0.28575 -0.01058,-0.127 -0.03175,-0.23283 -0.0635,-0.21167 -0.179916,-0.32808 -0.116417,-0.11642 -0.328084,-0.17992 -0.179916,-0.0635 -0.486833,-0.0953 l 0.15875,-1.05833 q 0.402167,0.0106 0.719667,0.10583 0.3175,0.0847 0.560916,0.20108 z"
             style="fill:#1a1a1a;stroke-width:0.26458332"
             id="path852" />
          <path
             inkscape:connector-curvature="0"
             d="m 62.555642,116.15365 q -0.01058,-0.4445 0.04233,-0.8255 0.05292,-0.39158 0.179916,-0.71967 0.275167,-0.66675 0.687917,-1.10066 0.41275,-0.43392 0.973667,-0.65617 0.529166,-0.21167 1.132416,-0.21167 1.354667,0 2.06375,0.83609 0.719667,0.84666 0.719667,2.56116 v 0.20109 q 0,0.0529 -0.01058,0.11641 0,0.0529 0,0.10584 h -4.571999 q 0.08467,1.03716 0.60325,1.57691 0.518583,0.53975 1.640416,0.53975 0.01058,0 0,-0.0635 -0.01058,-0.0741 -0.01058,-0.0952 0,-0.22225 0.08467,-0.41275 0.08467,-0.20108 0.232834,-0.33866 0.148166,-0.14817 0.338666,-0.23284 0.1905,-0.0847 0.41275,-0.0847 0.22225,0 0.41275,0.0847 0.201084,0.0847 0.338667,0.23284 0.148167,0.13758 0.232833,0.33866 0.08467,0.1905 0.08467,0.41275 0,0.24342 -0.08467,0.43392 -0.07408,0.17992 -0.211666,0.30692 -0.137584,0.127 -0.328084,0.21166 -0.179916,0.0847 -0.391583,0.127 -0.518583,0.13759 -1.23825,0.13759 -0.846666,0 -1.502833,-0.26459 -0.624417,-0.26458 -1.04775,-0.73025 -0.402167,-0.4445 -0.613833,-1.10066 -0.105834,-0.3175 -0.148167,-0.65617 -0.04233,-0.34925 -0.05292,-0.73025 z m 4.529667,-0.65617 q 0.01058,-0.80433 -0.402167,-1.32291 -0.41275,-0.52917 -1.143,-0.52917 -0.423333,0 -0.73025,0.16933 -0.328083,0.15875 -0.529166,0.41275 -0.22225,0.254 -0.34925,0.59267 -0.116417,0.33867 -0.15875,0.67733 z"
             style="fill:#1a1a1a;stroke-width:0.26458332"
             id="path854" />
        </g>
        <g
           transform="translate(-27.167317,13.261771)"
           style="fill:#4d4d4d"
           id="g1089">
          <g
             aria-label="Trap"
             style="font-style:normal;font-variant:normal;font-weight:normal;font-stretch:normal;font-size:10.58333302px;line-height:1.25;font-family:'Halida Sans';-inkscape-font-specification:'Halida Sans';letter-spacing:0px;word-spacing:0px;fill:#4d4d4d;fill-opacity:1;stroke:none;stroke-width:0.26458332"
             id="text1083">
            <path
               inkscape:connector-curvature="0"
               d="m 75.161419,109.3366 v 1.24883 h -3.27025 v 9.04875 h -1.449917 v -9.04875 h -3.249083 v -1.24883 z"
               style="fill:#4d4d4d;stroke-width:0.26458332"
               id="path857" />
            <path
               inkscape:connector-curvature="0"
               d="m 78.104247,112.61743 q 0.07408,0 0.15875,0.0106 0.09525,0 0.201083,0.0106 0.09525,0.0212 0.201084,0.0318 0.105833,0.0106 0.211666,0.0318 0.08467,0.0106 0.179917,0.0212 0.09525,0 0.179917,0.0212 0.08467,0.0212 0.137583,0.0423 0.0635,0.0106 0.105833,0.0318 l -0.211666,1.06891 q -0.07408,-0.0212 -0.201084,-0.0529 -0.116416,-0.0318 -0.28575,-0.0741 -0.169333,-0.0423 -0.391583,-0.0529 -0.211667,-0.0212 -0.47625,-0.0212 -0.359833,0 -0.6985,0.0741 -0.15875,0.0423 -0.275167,0.0741 -0.105833,0.0212 -0.148166,0.0423 v 5.7785 h -1.23825 v -6.59342 q 0.22225,-0.0953 0.497416,-0.15875 0.275167,-0.0741 0.582084,-0.15875 0.338666,-0.0529 0.6985,-0.0847 0.359833,-0.0423 0.772583,-0.0423 z"
               style="fill:#4d4d4d;stroke-width:0.26458332"
               id="path859" />
            <path
               d="m 84.00892,117.88793 v -0.83608 -0.4445 -0.9525 -0.33867 -0.127 c -0.01411,-0.0705 -0.0247,-0.14111 -0.03175,-0.21166 -0.0071,-0.0565 -0.01411,-0.10938 -0.02117,-0.15875 -0.0071,-0.0494 -0.01058,-0.0812 -0.01058,-0.0953 -0.04233,-0.18345 -0.119945,-0.35631 -0.232834,-0.51859 -0.127,-0.16227 -0.282222,-0.28222 -0.465666,-0.35983 -0.183445,-0.0917 -0.433917,-0.13758 -0.751417,-0.13758 -0.204611,0 -0.395111,0.007 -0.5715,0.0212 -0.169333,0.0141 -0.328083,0.0353 -0.47625,0.0635 -0.282222,0.0494 -0.504472,0.10937 -0.66675,0.17992 l -0.148166,-1.00542 c 0.07761,-0.0353 0.179916,-0.067 0.306916,-0.0952 0.134055,-0.0353 0.292805,-0.0705 0.47625,-0.10583 0.359833,-0.0635 0.751417,-0.0953 1.17475,-0.0953 0.486833,0 0.896056,0.0635 1.227667,0.1905 0.345722,0.127 0.613833,0.30339 0.804333,0.52917 0.211667,0.23989 0.356306,0.51152 0.433917,0.81491 0.08467,0.3175 0.127,0.66675 0.127,1.04775 v 4.21217 c -0.04939,0.0141 -0.109359,0.0282 -0.179917,0.0423 -0.07055,0.007 -0.155222,0.0176 -0.254,0.0317 -0.09172,0.0141 -0.1905,0.0282 -0.296333,0.0423 -0.09878,0.0141 -0.208139,0.0282 -0.328084,0.0423 -0.02117,0 -0.04233,0.004 -0.0635,0.0106 h -0.05292 v -0.62441 c -0.204611,0.23283 -0.448028,0.40922 -0.73025,0.52916 -0.275167,0.11995 -0.567972,0.18698 -0.878417,0.20109 -0.303389,0.0141 -0.606778,-0.0212 -0.910167,-0.10584 -0.296333,-0.0847 -0.564444,-0.20814 -0.804333,-0.37041 -0.232833,-0.16933 -0.41275,-0.39511 -0.53975,-0.67734 -0.0635,-0.14111 -0.109361,-0.2928 -0.137583,-0.45508 -0.02822,-0.16228 -0.04586,-0.3422 -0.05292,-0.53975 -0.0071,-0.18345 0.117698,-0.72891 0.166819,-0.80065 0.299095,-0.58143 3.689049,-0.98074 3.886605,-1.13596 0.197555,-0.16228 0.829145,0.94746 0.585297,1.05145 0.225778,-0.0917 -3.106025,0.0691 -3.442804,0.62053 -0.02117,0.0776 -0.02469,0.16227 -0.01058,0.254 0.07056,0.41627 0.211667,0.70908 0.423334,0.87841 0.211667,0.16228 0.451555,0.23636 0.719666,0.22225 0.275167,-0.0141 0.560917,-0.0953 0.85725,-0.24341 0.303389,-0.14817 0.582084,-0.32456 0.836084,-0.52917 z"
               style="fill:#4d4d4d;stroke-width:0.26458332"
               id="path861"
               inkscape:connector-curvature="0"
               sodipodi:nodetypes="cccccccccccsccccccscccsccccccccccccccccccccccccc" />
            <path
               inkscape:connector-curvature="0"
               d="m 87.001688,118.04668 q 0.22225,0.17992 0.635,0.34925 0.211667,0.0847 0.433917,0.127 0.232833,0.0423 0.47625,0.0423 0.518583,0 0.899583,-0.1905 0.370417,-0.1905 0.60325,-0.51859 0.116417,-0.16933 0.201083,-0.35983 0.08467,-0.20108 0.137584,-0.43392 0.05292,-0.23283 0.07408,-0.46566 0.03175,-0.24342 0.03175,-0.508 0,-0.79375 -0.275167,-1.36525 -0.232833,-0.40217 -0.613833,-0.62442 0.05292,0.17992 0.05292,0.34925 0,0.24342 -0.09525,0.46567 -0.09525,0.21166 -0.254,0.37041 -0.15875,0.15875 -0.381,0.254 -0.211667,0.0952 -0.455084,0.0952 -0.423333,0 -0.6985,-0.20108 -0.275166,-0.21167 -0.402166,-0.51858 -0.127,-0.3175 -0.105834,-0.68792 0.02117,-0.381 0.201084,-0.70908 0.1905,-0.32809 0.529166,-0.56092 0.34925,-0.23283 0.85725,-0.27517 0.201084,-0.0212 0.433917,0 0.232833,0.0212 0.47625,0.11642 0.624417,0.24342 1.068917,0.6985 0.4445,0.47625 0.677333,1.11125 0.243417,0.67733 0.243417,1.48167 0,0.79375 -0.201084,1.42875 -0.211666,0.65616 -0.592666,1.12183 -0.402167,0.47625 -0.963084,0.73025 -0.582083,0.26458 -1.291166,0.26458 -0.592667,0 -1.037167,-0.15875 -0.465667,-0.16933 -0.66675,-0.29633 v 3.40783 l -1.2065,0.22225 -0.01058,-9.89541 q 0.1905,-0.0529 0.455083,-0.10584 0.264583,-0.0635 0.592667,-0.127 0.04233,-0.0106 0.07408,-0.0106 0.03175,0 0.07408,-0.0106 v 1.12183 0.68792 z"
               style="fill:#4d4d4d;stroke-width:0.26458332"
               id="path863" />
          </g>
          <g
             id="g1087"
             transform="matrix(-5.0116926e-5,-0.00153397,-0.00118365,6.494958e-5,90.366122,130.53982)"
             style="fill:#4d4d4d;fill-opacity:1;stroke:none">
            <path
               id="path1085"
               d="m 7232.5241,2581.2778 c -151.0001,65 218.6699,941.323 129.6698,917.3229 -16,-4.9999 -155.9258,46.0149 -155.9258,46.0149 -108.8937,81.1418 -232.617,305.2213 -276.617,345.2212 -27.0001,23.0001 -69.0001,52.0001 -94.0001,63.0001 -41.9999,19 -91.9999,2.9998 -122.9999,-11.0001 -18,-9.0001 7,10e-5 0,0 -7,8e-4 -46.0001,-34 -87,-75 -41,-41 -80.0001,-75 -86,-75 -6.0001,0 -17,-6.9999 -24,-15 -7.0001,-8 -29.0001,-15 -50.0001,-14.9999 -42,0 -121.9999,52.9999 -195,129 -56,58.9998 -103.9999,80.9999 -174,80.9999 -65,0 -101.9999,-14.9999 -159.9999,-67 -20.0001,-17.9999 -39,-33 -42,-33 -3,0 -25,-26.9999 -49.0001,-59.9999 -24,-33.0001 -46.9999,-60.0001 -49.9999,-60.0001 -12,0 -61,41 -149,123.0001 -47,42.9999 -96.0001,83.9999 -110,89 -14.0001,6 -41,17 -59.0001,25 -30,12.9999 -38.9999,11.9999 -94.9999,-7.0001 -34.0001,-11.9999 -75,-29.9999 -92.0001,-41 -15.9999,-10 -36.9999,-22 -44.9999,-24.9999 -8,-4.0001 -21,-12.0001 -29.0001,-18.0001 -7.9999,-5.9999 -33.9999,-16 -57.9999,-21.9999 -54,-14 -134.0001,4.9999 -245.0001,58 -118.9999,56 -139,61.9999 -233.9999,66 -86.0001,2.9999 -95.0001,1.0001 -159,-29.0001 -128.0001,-60 -164.0001,-89 -385.0001,-308 -161.9999,-161 -258.9999,-252 -326,-306 -136.9999,-109.9999 -177.9999,-173 -171.9999,-265 3.9999,-57.9999 46,-154 83.9999,-193.9999 11,-11 44.0001,-50 74.0001,-86.0001 29,-35.9999 63.9999,-75 76.9999,-88 84.0001,-78 238.0001,-102 547,-84.9999 137,8 271,8 421,1.9999 121.0001,-5 420.0001,-12.9999 665.0001,-17.9999 244.9999,-6 598,-15 784,-22 264.9999,-10 370.9999,-10.0001 485,-1 262,21.9999 624.873,-91.5591 457.873,-18.5591 z"
               inkscape:connector-curvature="0"
               sodipodi:nodetypes="ccccccssssscscsssccccccscccscccccccccccc"
               style="fill:#4d4d4d;fill-opacity:1;stroke-width:1" />
          </g>
        </g>
        <path
           inkscape:connector-curvature="0"
           d="m 20.714625,125.26119 c -1.64643,0.46562 -2.37014,2.41941 -1.42932,3.85281 0.34376,0.52953 0.3528,0.73952 0.0724,1.77119 -0.0724,0.24651 -0.18998,0.703 -0.27139,1.00429 -0.0814,0.31041 -0.13569,0.65735 -0.1176,0.77604 l 0.0271,0.22824 2.29776,0.0182 c 1.25744,0.009 2.34299,-0.009 2.41537,-0.0365 0.16283,-0.064 0.16283,-0.39257 -0.009,-1.00428 -0.58801,-2.10899 -0.58801,-2.15465 -0.18997,-2.75723 0.81417,-1.25992 0.37995,-2.95808 -0.94082,-3.65194 -0.40708,-0.20999 -1.42027,-0.31955 -1.85449,-0.20086 z"
           id="path1204"
           style="fill:#1a1a1a;stroke:none;stroke-width:0.009088" />
      </g>
    </g>
  </g>
</svg>
