<?xml version="1.0" standalone="no"?>
<!DOCTYPE svg PUBLIC "-//W3C//DTD SVG 20010904//EN"
 "http://www.w3.org/TR/2001/REC-SVG-20010904/DTD/svg10.dtd">
<svg version="1.0" xmlns="http://www.w3.org/2000/svg"
 width="900.000000pt" height="900.000000pt" viewBox="0 0 900.000000 900.000000"
 preserveAspectRatio="xMidYMid meet">
<metadata>
Created by potrace 1.10, written by Peter Selinger 2001-2011
</metadata>
<g transform="translate(0.000000,900.000000) scale(0.100000,-0.100000)"
fill="#000000" stroke="none">
<path d="M3095 8740 c-425 -47 -739 -242 -1071 -665 -74 -94 -89 -115 -219
-305 -303 -443 -465 -596 -679 -642 -132 -28 -191 -102 -171 -218 5 -27 21
-56 53 -91 l46 -51 53 5 c143 15 319 121 475 286 90 95 161 184 351 441 67 91
136 181 152 200 257 297 578 573 830 713 56 31 194 97 202 97 3 0 19 6 36 14
53 23 98 37 185 56 46 9 89 23 95 29 17 17 -16 70 -66 106 -38 27 -50 30 -122
31 -44 1 -111 -2 -150 -6z"/>
<path d="M5512 8743 c-25 -5 -102 -74 -102 -90 0 -14 34 -34 105 -62 123 -48
211 -83 240 -96 17 -7 41 -18 55 -23 149 -63 143 -60 273 -121 60 -28 115 -51
122 -51 7 0 18 -7 25 -15 7 -8 17 -15 22 -15 18 0 434 -212 578 -294 25 -14
52 -29 60 -33 65 -30 393 -241 580 -372 47 -33 111 -78 143 -101 32 -22 64
-45 70 -50 7 -6 53 -40 102 -77 50 -37 92 -69 95 -73 3 -3 33 -28 68 -54 35
-26 106 -83 157 -127 52 -43 101 -76 108 -73 7 2 30 35 50 73 44 81 47 127 15
188 -29 52 -49 67 -399 299 -363 241 -414 274 -421 274 -3 0 -45 26 -94 58
-50 31 -99 63 -109 70 -11 6 -29 16 -40 21 -11 5 -35 21 -54 35 -19 14 -38 26
-42 26 -4 0 -64 34 -133 75 -69 41 -128 75 -131 75 -3 0 -22 10 -43 23 -228
143 -808 412 -987 458 -16 4 -66 17 -109 28 -85 23 -167 32 -204 24z"/>
<path d="M4104 8701 c-56 -11 -111 -24 -122 -30 -11 -6 -29 -11 -40 -11 -31 0
-214 -98 -254 -136 -44 -41 -49 -76 -18 -139 11 -22 19 -44 20 -49 0 -17 95
-152 135 -192 143 -144 330 -211 561 -202 136 6 219 25 321 75 127 61 211 132
308 263 59 80 125 203 125 233 0 48 -191 136 -385 179 -136 30 -511 35 -651 9z"/>
<path d="M5297 8356 c-106 -209 -260 -369 -457 -473 -215 -113 -532 -153 -750
-92 -186 51 -392 191 -514 349 -46 59 -106 161 -106 180 0 7 -7 28 -16 47 -16
33 -18 34 -58 28 -104 -18 -358 -124 -451 -189 -16 -12 -37 -25 -47 -31 -9 -5
-43 -28 -75 -49 -52 -35 -87 -62 -172 -131 -57 -46 -239 -216 -270 -251 -19
-22 -58 -65 -87 -96 -29 -32 -146 -181 -259 -332 -223 -298 -360 -451 -495
-553 -81 -61 -214 -134 -273 -148 -37 -10 -34 -21 16 -68 86 -81 408 -317 431
-317 3 0 24 -13 48 -29 69 -46 309 -160 413 -196 28 -9 59 -21 70 -26 11 -5
40 -14 65 -20 228 -55 349 -72 506 -70 73 1 104 -2 112 -12 6 -7 18 -85 27
-173 8 -87 18 -166 21 -174 3 -8 12 -53 19 -100 7 -47 19 -118 26 -158 8 -44
9 -76 3 -81 -5 -4 -63 -31 -129 -59 -313 -133 -574 -295 -764 -476 -117 -112
-271 -303 -271 -336 0 -6 17 -18 37 -26 180 -73 466 -227 598 -324 28 -20 74
-53 103 -74 30 -20 68 -49 85 -64 17 -15 44 -39 60 -53 37 -32 31 -56 -15 -63
-18 -3 -82 -12 -143 -21 -235 -34 -305 -49 -305 -64 0 -8 22 -60 49 -115 27
-56 74 -154 105 -218 31 -65 81 -171 112 -235 31 -65 75 -158 99 -208 23 -49
76 -160 118 -245 l75 -155 63 -30 c35 -16 116 -53 179 -83 63 -30 153 -72 200
-94 221 -102 247 -120 257 -181 12 -79 2 -97 -140 -229 -73 -67 -133 -132
-135 -143 -2 -11 25 -69 59 -130 33 -60 76 -137 94 -170 60 -112 95 -175 127
-232 17 -32 42 -77 55 -101 13 -24 36 -67 52 -95 25 -45 195 -355 282 -514 16
-29 43 -79 61 -110 17 -32 39 -74 49 -94 10 -20 26 -39 34 -43 27 -10 143 -7
150 4 3 6 -3 49 -15 98 -11 48 -30 125 -41 172 -11 47 -24 101 -29 120 -5 19
-16 64 -24 100 -21 91 -84 358 -96 400 -5 19 -16 69 -26 110 -9 41 -22 95 -29
120 -7 25 -16 63 -19 85 -4 22 -11 54 -16 70 -5 17 -16 62 -25 100 -9 39 -21
88 -27 110 -6 22 -17 67 -24 100 -7 33 -20 89 -29 125 -31 126 -47 211 -42
217 3 3 28 -7 54 -22 111 -64 200 -105 283 -130 30 -8 69 -20 85 -26 58 -18
231 -32 350 -26 114 5 298 39 319 58 6 5 16 9 24 9 22 0 156 61 224 102 20 13
40 20 43 16 7 -7 -7 -91 -29 -173 -7 -27 -21 -81 -29 -120 -36 -158 -78 -332
-89 -370 -6 -22 -15 -58 -19 -80 -5 -22 -15 -69 -24 -105 -9 -36 -20 -85 -25
-110 -5 -25 -16 -67 -24 -95 -8 -27 -22 -84 -31 -125 -9 -41 -34 -147 -55
-235 -21 -88 -48 -200 -60 -250 -11 -49 -28 -120 -37 -156 -23 -92 -19 -99 64
-99 37 0 73 4 79 8 5 4 22 30 36 58 14 27 36 68 48 90 22 37 34 60 109 197 17
31 44 81 60 110 15 28 43 79 61 112 17 33 47 85 66 116 19 31 34 59 34 62 0 4
76 145 132 242 16 28 42 77 59 110 16 33 39 76 51 95 25 41 96 173 135 248
l28 53 -70 66 c-191 179 -213 204 -219 238 -8 39 1 80 23 113 14 21 148 91
356 187 151 69 272 126 295 139 25 14 71 98 201 371 34 72 90 189 124 260 35
72 81 168 103 215 22 47 67 143 101 214 34 71 58 132 54 136 -4 4 -37 13 -73
20 -65 12 -89 16 -289 44 -115 16 -152 35 -117 61 11 8 31 25 45 37 195 172
549 385 808 487 57 23 57 30 -5 121 -112 166 -331 370 -540 505 -70 45 -281
155 -353 184 -18 8 -52 21 -74 31 -22 9 -60 25 -85 35 -25 10 -49 22 -54 27
-9 7 8 100 34 193 5 17 11 55 15 85 4 30 13 91 20 135 8 44 17 124 21 177 8
120 13 126 93 110 148 -31 412 7 716 101 88 27 128 42 210 77 40 17 180 81
195 89 101 54 164 90 210 120 30 19 63 40 72 46 161 98 409 317 533 469 l39
48 -40 37 c-77 68 -99 87 -219 181 -432 343 -842 614 -1270 842 -206 109 -667
328 -800 379 -27 11 -59 24 -70 29 -65 30 -339 140 -347 140 -2 0 -24 -42 -51
-94z m-497 -2066 c232 -23 444 -77 635 -160 26 -11 148 -66 200 -90 22 -10 48
-21 58 -24 25 -8 32 -35 16 -60 -13 -21 -16 -41 -38 -236 -15 -131 -51 -322
-91 -485 -13 -50 -23 -71 -35 -73 -21 -5 -165 134 -165 159 0 9 21 38 47 65
62 66 87 123 80 185 -3 26 -12 58 -19 71 -7 13 -107 119 -223 236 -220 224
-257 252 -335 252 -55 0 -108 -26 -167 -81 -28 -27 -58 -49 -65 -49 -8 0 -74
60 -147 134 -92 93 -132 140 -128 150 5 14 29 16 149 15 79 0 181 -4 228 -9z
m-504 -262 c135 -133 204 -209 204 -223 0 -12 -25 -45 -59 -78 -83 -81 -105
-150 -79 -241 10 -34 51 -81 232 -263 212 -213 223 -222 279 -238 54 -16 61
-16 115 1 44 14 70 31 114 75 32 31 65 60 74 63 11 4 53 -32 145 -124 71 -72
129 -135 129 -141 0 -6 -21 -50 -46 -97 -137 -257 -292 -422 -484 -514 -157
-75 -242 -93 -440 -92 -135 1 -168 4 -255 28 -377 101 -623 379 -794 896 -29
87 -75 281 -86 360 -4 25 -10 59 -15 75 -14 47 -49 391 -43 411 5 14 48 34 72
34 19 0 188 50 251 75 64 24 264 108 328 137 35 15 69 28 75 28 7 1 23 7 37
15 14 8 29 14 33 15 5 0 101 -91 213 -202z m-190 -2173 c185 -54 463 -63 664
-20 41 9 94 19 117 22 45 5 45 6 58 -72 10 -57 57 -151 109 -217 64 -81 155
-150 268 -206 78 -38 97 -51 97 -69 1 -22 -40 -90 -88 -149 -14 -17 -42 -51
-61 -74 -56 -70 -203 -191 -293 -243 -136 -77 -259 -114 -449 -134 -75 -8
-249 21 -358 58 -160 55 -351 188 -461 322 -28 34 -59 71 -68 82 -9 11 -27 38
-41 60 -13 22 -27 42 -31 45 -14 11 -19 48 -7 58 7 5 40 24 73 42 144 77 238
157 301 256 35 55 74 144 74 170 0 22 28 84 38 84 4 0 31 -7 58 -15z m-404
-1131 c117 -98 282 -188 418 -229 30 -8 69 -20 85 -26 57 -18 240 -31 362 -25
164 8 295 41 453 114 34 15 145 79 165 95 88 67 135 95 135 79 0 -27 -31 -146
-42 -160 -56 -72 -188 -187 -273 -238 -136 -81 -238 -116 -401 -140 -116 -17
-127 -17 -232 0 -223 35 -359 96 -527 237 -73 61 -157 148 -179 186 -10 18
-36 111 -36 131 0 22 27 13 72 -24z"/>
<path d="M2070 3184 c-36 -13 -74 -28 -85 -33 -11 -5 -45 -19 -75 -31 -30 -11
-64 -25 -75 -29 -11 -5 -40 -17 -65 -27 -53 -21 -127 -52 -155 -64 -11 -5 -60
-25 -110 -45 -49 -20 -114 -47 -143 -61 -29 -13 -55 -24 -58 -24 -4 0 -33 -12
-119 -50 -11 -5 -51 -23 -88 -39 -38 -17 -71 -31 -73 -31 -3 0 -26 -10 -52
-21 -48 -22 -122 -55 -202 -90 -141 -63 -162 -88 -189 -224 -11 -55 -22 -113
-26 -130 -3 -16 -12 -59 -20 -95 -7 -36 -21 -103 -29 -150 -9 -47 -19 -93 -22
-102 -3 -9 -9 -41 -15 -70 -20 -108 -58 -298 -83 -418 -9 -41 -23 -111 -32
-155 -34 -171 -43 -214 -67 -335 -14 -69 -28 -138 -32 -155 -24 -117 -35 -170
-49 -240 -9 -44 -20 -98 -26 -120 -23 -93 1 -164 72 -215 l41 -30 1718 0
c1159 0 1720 3 1724 10 4 6 -7 33 -24 60 -17 28 -31 52 -31 55 0 2 -20 39 -45
81 -25 41 -45 77 -45 79 0 1 -20 38 -43 81 -24 44 -60 108 -79 144 -19 36 -47
85 -60 110 -14 25 -41 74 -60 110 -20 36 -44 81 -55 100 -11 19 -37 67 -58
105 -79 147 -109 201 -132 237 -13 21 -23 40 -23 43 0 3 -23 47 -51 97 -95
171 -99 179 -99 227 0 44 2 47 106 148 89 87 104 106 94 118 -7 8 -17 15 -22
15 -5 0 -41 15 -81 34 -40 19 -117 55 -172 80 -152 71 -218 106 -232 125 -7 9
-25 41 -39 71 -77 160 -161 336 -204 425 -165 347 -221 455 -232 455 -7 -1
-42 -12 -78 -26z"/>
<path d="M6794 3202 c-6 -4 -21 -29 -34 -57 -12 -27 -41 -90 -65 -140 -135
-280 -188 -390 -230 -480 -140 -297 -124 -277 -271 -346 -49 -23 -127 -59
-174 -81 -47 -23 -109 -51 -138 -64 -29 -13 -55 -30 -58 -38 -3 -8 20 -37 58
-72 137 -128 138 -129 138 -188 0 -56 -1 -59 -100 -236 -29 -52 -73 -133 -98
-180 -25 -47 -55 -101 -67 -120 -12 -19 -36 -64 -54 -100 -18 -36 -49 -90 -67
-121 -19 -31 -34 -59 -34 -63 0 -3 -13 -27 -29 -53 -15 -27 -46 -82 -68 -123
-85 -160 -265 -485 -274 -494 -5 -6 -9 -18 -9 -28 0 -17 67 -18 1728 -16
l1727 3 37 28 c20 15 43 43 52 62 20 41 21 126 2 191 -8 27 -18 72 -21 99 -4
28 -11 64 -15 80 -5 17 -16 68 -25 115 -9 47 -23 112 -30 145 -7 33 -16 80
-20 105 -4 25 -11 59 -16 75 -5 17 -20 91 -35 165 -14 74 -32 169 -41 210 -8
41 -20 104 -27 140 -8 36 -23 115 -35 175 -12 61 -28 139 -36 175 -8 36 -19
90 -25 120 -6 30 -17 87 -25 125 -8 39 -17 84 -21 100 -35 180 -47 217 -81
250 -19 18 -73 50 -121 70 -96 42 -181 79 -227 100 -77 36 -142 63 -165 70
-14 4 -30 11 -35 15 -6 5 -35 18 -65 29 -30 12 -64 26 -75 31 -11 5 -42 18
-70 30 -78 34 -118 51 -140 60 -11 5 -60 25 -110 45 -49 21 -99 41 -110 46
-11 5 -45 18 -75 29 -30 11 -64 25 -75 30 -11 5 -44 18 -72 29 -29 12 -75 30
-102 41 -55 22 -61 23 -77 12z"/>
</g>
</svg>
